<?xml version="1.0" standalone="no"?><!DOCTYPE svg PUBLIC "-//W3C//DTD SVG 1.1//EN" "http://www.w3.org/Graphics/SVG/1.1/DTD/svg11.dtd"><svg t="1489454832530" class="icon" style="" viewBox="0 0 1024 1024" version="1.1" xmlns="http://www.w3.org/2000/svg" p-id="8714" xmlns:xlink="http://www.w3.org/1999/xlink" width="200" height="200"><defs><style type="text/css"></style></defs><path d="M1020.217 185.697c0 0-57.815-48.037-116.905-73.325-64.295-30.82-155.16-29.4-155.16-29.4s-64.03-4.727-129.655 26.21c-65.62 30.942-114.055 72.972-114.055 72.972s-66.95-51.155-126.115-77.93-144.53-21.252-144.53-21.252-81.24 4.125-133.515 27.622C48.01 134.085 0 189.945 0 189.945l0 720.498c0 0 73.9-63.865 117.962-81.825 44.065-17.955 113.002-17.36 113.002-17.36s82.567 9.9 131.777 29.755c49.215 19.865 141.702 93.52 141.702 93.52s58.95-62.83 106.265-86.435c80.24-41.45 159.775-35.425 159.775-35.425s48.88 2.13 116.885 27.63c61.84 23.195 134.095 71.555 134.095 71.555l-1.245-726.163L1020.218 185.697zM479.286 855.183c0 0-126.522-100.02-248.322-97.765-114.772 2.12-158.7 31.17-188.457 60.925 1.067-35.065-0.535-602.214-0.535-602.214s44.107-79.317 192.887-85.695c126.467-10.625 235.572 78.637 242.302 95.642C480.354 248.394 479.286 855.183 479.286 855.183zM973.453 831.808c-29.76-29.76-109.46-74.39-224.229-76.515-121.81-2.26-217.694 100.95-217.694 100.95s-1.06-606.783 2.13-629.098c10.63-17.005 93.525-102.02 242.304-95.642 128.95 5.612 199.154 83.72 199.154 83.72S973.578 797.023 973.453 831.808z" p-id="8715" fill="#666666"></path></svg>