<?xml version="1.0" standalone="no"?><!DOCTYPE svg PUBLIC "-//W3C//DTD SVG 1.1//EN" "http://www.w3.org/Graphics/SVG/1.1/DTD/svg11.dtd"><svg t="1489455379397" class="icon" style="" viewBox="0 0 1024 1024" version="1.1" xmlns="http://www.w3.org/2000/svg" p-id="11213" xmlns:xlink="http://www.w3.org/1999/xlink" width="200" height="200"><defs><style type="text/css"></style></defs><path d="M939.232 959.083l-39.079-613.49c-1.145-10.434-9.97-18.333-20.463-18.333h-164.259v-82.241c0-113.679-92.17-205.85-205.85-205.85s-205.85 92.17-205.85 205.85v82.241h-163.214c-10.474 0-19.279 7.86-20.445 18.253l-42.517 617.533c-0.662 5.833 1.186 11.66 5.087 16.020 3.9 4.384 9.489 6.896 15.358 6.896h821.211c0.159 0 0.301 0 0.402 0 11.379 0 20.586-9.227 20.586-20.587 0.001-2.21-0.34-4.301-0.965-6.291zM344.899 245.018c0-90.943 73.735-164.681 164.681-164.681 90.944 0 164.679 73.737 164.679 164.681v82.241h-329.36v-82.241zM121.056 944.77l37.834-576.342h144.841v46.793c-12.303 7.12-20.586 20.414-20.586 35.65 0 22.735 18.434 41.169 41.169 41.169s41.171-18.434 41.171-41.169c0-15.235-8.284-28.529-20.586-35.649v-46.794h329.36v46.794c-12.302 7.12-20.585 20.414-20.585 35.648 0 22.735 18.436 41.169 41.171 41.169s41.169-18.434 41.169-41.169c0-15.235-8.284-28.53-20.586-35.65v-46.793h145.806l35.018 576.342h-775.199z" p-id="11214" fill="#FDC93F"></path></svg>